<?xml version="1.0" encoding="UTF-8" standalone="no"?>
<!-- Generator: Adobe Illustrator 18.1.1, SVG Export Plug-In . SVG Version: 6.00 Build 0)  -->

<svg
   version="1.1"
   id="Capa_1"
   x="0px"
   y="0px"
   viewBox="0 0 205.229 205.229"
   style="enable-background:new 0 0 205.229 205.229;"
   xml:space="preserve"
   sodipodi:docname="icon-globe.svg"
   inkscape:version="1.2 (dc2aedaf03, 2022-05-15)"
   xmlns:inkscape="http://www.inkscape.org/namespaces/inkscape"
   xmlns:sodipodi="http://sodipodi.sourceforge.net/DTD/sodipodi-0.dtd"
   xmlns="http://www.w3.org/2000/svg"
   xmlns:svg="http://www.w3.org/2000/svg"><defs
   id="defs81" /><sodipodi:namedview
   id="namedview79"
   pagecolor="#505050"
   bordercolor="#eeeeee"
   borderopacity="1"
   inkscape:showpageshadow="0"
   inkscape:pageopacity="0"
   inkscape:pagecheckerboard="0"
   inkscape:deskcolor="#505050"
   showgrid="false"
   inkscape:zoom="4.0783709"
   inkscape:cx="101.75632"
   inkscape:cy="102.4919"
   inkscape:window-width="1920"
   inkscape:window-height="1017"
   inkscape:window-x="-8"
   inkscape:window-y="380"
   inkscape:window-maximized="1"
   inkscape:current-layer="Capa_1" />
<g
   id="g46"
   style="fill:#ffffff;fill-opacity:1">
	<g
   id="g44"
   style="fill:#ffffff;fill-opacity:1">
		<g
   id="g6"
   style="fill:#ffffff;fill-opacity:1">
			<g
   id="g4"
   style="fill:#ffffff;fill-opacity:1">
				<path
   style="fill:#ffffff;fill-opacity:1"
   d="M102.618,205.229c-56.585,0-102.616-46.031-102.616-102.616C0.002,46.031,46.033,0,102.618,0      C159.2,0,205.227,46.031,205.227,102.613C205.227,159.198,159.2,205.229,102.618,205.229z M102.618,8.618      c-51.829,0-94.002,42.166-94.002,93.995s42.17,93.995,94.002,93.995c51.825,0,93.988-42.162,93.988-93.995      C196.606,50.784,154.444,8.618,102.618,8.618z"
   id="path2" />
			</g>
		</g>
		<g
   id="g12"
   style="fill:#ffffff;fill-opacity:1">
			<g
   id="g10"
   style="fill:#ffffff;fill-opacity:1">
				<rect
   x="5.746"
   y="98.304"
   style="fill:#ffffff;fill-opacity:1"
   width="193.734"
   height="8.618"
   id="rect8" />
			</g>
		</g>
		<g
   id="g18"
   style="fill:#ffffff;fill-opacity:1">
			<g
   id="g16"
   style="fill:#ffffff;fill-opacity:1">
				<path
   style="fill:#ffffff;fill-opacity:1"
   d="M104.941,62.111c-48.644,0-84.94-10.704-87.199-11.388l2.494-8.253      c0.816,0.247,82.657,24.336,164.38-0.004l2.452,8.26C158.405,59.266,130.021,62.111,104.941,62.111z"
   id="path14" />
			</g>
		</g>
		<g
   id="g24"
   style="fill:#ffffff;fill-opacity:1">
			<g
   id="g22"
   style="fill:#ffffff;fill-opacity:1">
				<path
   style="fill:#ffffff;fill-opacity:1"
   d="M20.416,160.572l-2.459-8.26c84.271-25.081,165.898-1.027,169.333,0l-2.494,8.256      C183.976,160.318,102.142,136.24,20.416,160.572z"
   id="path20" />
			</g>
		</g>
		<g
   id="g30"
   style="fill:#ffffff;fill-opacity:1">
			<g
   id="g28"
   style="fill:#ffffff;fill-opacity:1">
				<path
   style="fill:#ffffff;fill-opacity:1"
   d="M69.399,196.168C26.933,96.747,63.584,8.604,63.959,7.727l7.927,3.378      c-0.365,0.845-35.534,85.756,5.44,181.677L69.399,196.168z"
   id="path26" />
			</g>
		</g>
		<g
   id="g36"
   style="fill:#ffffff;fill-opacity:1">
			<g
   id="g34"
   style="fill:#ffffff;fill-opacity:1">
				<path
   style="fill:#ffffff;fill-opacity:1"
   d="M135.168,196.168l-7.927-3.382c40.971-95.92,5.801-180.832,5.436-181.677l7.927-3.378      C140.973,8.604,177.627,96.747,135.168,196.168z"
   id="path32" />
			</g>
		</g>
		<g
   id="g42"
   style="fill:#ffffff;fill-opacity:1">
			<g
   id="g40"
   style="fill:#ffffff;fill-opacity:1">
				<rect
   x="98.306"
   y="5.744"
   style="fill:#ffffff;fill-opacity:1"
   width="8.614"
   height="197.302"
   id="rect38" />
			</g>
		</g>
	</g>
</g>
<g
   id="g48">
</g>
<g
   id="g50">
</g>
<g
   id="g52">
</g>
<g
   id="g54">
</g>
<g
   id="g56">
</g>
<g
   id="g58">
</g>
<g
   id="g60">
</g>
<g
   id="g62">
</g>
<g
   id="g64">
</g>
<g
   id="g66">
</g>
<g
   id="g68">
</g>
<g
   id="g70">
</g>
<g
   id="g72">
</g>
<g
   id="g74">
</g>
<g
   id="g76">
</g>
</svg>
