<?xml version="1.0" encoding="UTF-8" standalone="no"?>
<!-- Created with Inkscape (http://www.inkscape.org/) -->

<svg
   width="48"
   height="48"
   viewBox="0 0 48 48"
   version="1.1"
   id="svg5"
   inkscape:version="1.1.2 (1:1.1+202202050950+0a00cf5339)"
   sodipodi:docname="icon-li.svg"
   xmlns:inkscape="http://www.inkscape.org/namespaces/inkscape"
   xmlns:sodipodi="http://sodipodi.sourceforge.net/DTD/sodipodi-0.dtd"
   xmlns="http://www.w3.org/2000/svg"
   xmlns:svg="http://www.w3.org/2000/svg">
  <sodipodi:namedview
     id="namedview7"
     pagecolor="#000000"
     bordercolor="#666666"
     borderopacity="1.0"
     inkscape:pageshadow="2"
     inkscape:pageopacity="0"
     inkscape:pagecheckerboard="true"
     inkscape:document-units="px"
     showgrid="false"
     showguides="true"
     inkscape:guide-bbox="true"
     inkscape:zoom="8"
     inkscape:cx="-2.8125"
     inkscape:cy="31.1875"
     inkscape:window-width="1848"
     inkscape:window-height="1016"
     inkscape:window-x="72"
     inkscape:window-y="27"
     inkscape:window-maximized="1"
     inkscape:current-layer="layer1">
    <sodipodi:guide
       position="24.044159,50.13129"
       orientation="1,0"
       id="guide1589" />
    <sodipodi:guide
       position="-11.1875,24.0625"
       orientation="0,-1"
       id="guide1921" />
  </sodipodi:namedview>
  <defs
     id="defs2" />
  <g
     inkscape:label="Layer 1"
     inkscape:groupmode="layer"
     id="layer1">
    <rect
       style="fill:none;fill-rule:evenodd;stroke:#ffffff;stroke-width:3.6772;stroke-linecap:butt;stroke-linejoin:round;stroke-miterlimit:4;stroke-dasharray:none;stroke-opacity:1"
       id="rect846"
       width="44.322807"
       height="44.322803"
       x="1.8127115"
       y="1.9856634"
       ry="5.6346893" />
    <g
       id="g1125"
       transform="translate(-151.80569,-221.98578)">
      <g
         id="g1071">
	
</g>
      <g
         id="g1073">
</g>
      <g
         id="g1075">
</g>
      <g
         id="g1077">
</g>
      <g
         id="g1079">
</g>
      <g
         id="g1081">
</g>
      <g
         id="g1083">
</g>
      <g
         id="g1085">
</g>
      <g
         id="g1087">
</g>
      <g
         id="g1089">
</g>
      <g
         id="g1091">
</g>
      <g
         id="g1093">
</g>
      <g
         id="g1095">
</g>
      <g
         id="g1097">
</g>
      <g
         id="g1099">
</g>
      <g
         id="g1101">
</g>
    </g>
    <g
       style="fill:#000000"
       id="g8730"
       transform="matrix(0.61538462,0,0,0.61538462,5.4675435,3.1541708)">
      <path
         d="m 30.187,8.4432052 c -14.359,0 -26,11.6409998 -26,25.9999998 0,12.277 8.512,22.56 19.955,25.286 -0.592,-0.141 -1.179,-0.299 -1.755,-0.479 v -5.957 c 0,0 -0.975,0.325 -2.275,0.325 -3.637,0 -5.148,-3.245 -5.525,-4.875 -0.229,-0.993 -0.827,-1.934 -1.469,-2.509 -0.767,-0.684 -1.126,-0.686 -1.131,-0.92 -0.01,-0.491 0.658,-0.471 0.975,-0.471 1.625,0 2.857,1.729 3.429,2.623 1.417,2.207 2.938,2.577 3.721,2.577 0.975,0 1.817,-0.146 2.397,-0.426 0.268,-1.888 1.108,-3.57 2.478,-4.774 -6.097,-1.219 -10.4,-4.716 -10.4,-10.4 0,-2.928 1.175,-5.619 3.133,-7.792 -0.2,-0.567 -0.533,-1.714 -0.533,-3.583 0,-1.235 0.086,-2.751 0.65,-4.225 0,0 3.708,0.026 7.205,3.338 1.614,-0.47 3.341,-0.738 5.145,-0.738 1.804,0 3.531,0.268 5.145,0.738 3.497,-3.312 7.205,-3.338 7.205,-3.338 0.567,1.474 0.65,2.99 0.65,4.225 0,2.015 -0.268,3.19 -0.432,3.697 1.898,2.153 3.032,4.802 3.032,7.678 0,5.684 -4.303,9.181 -10.4,10.4 1.628,1.43 2.6,3.513 2.6,5.85 v 8.557 c -0.576,0.181 -1.162,0.338 -1.755,0.479 11.443,-2.726 19.955,-13.009 19.955,-25.286 0,-14.359 -11.641,-25.9999998 -26,-25.9999998 z M 32,60.373205 c -0.599,0.042 -1.203,0.07 -1.813,0.07 0.61,0 1.213,-0.029 1.813,-0.07 z m 4.232,-0.644 c -1.164,0.265 -3.014,0.541 -4.232,0.644 1.218,-0.103 3.068,-0.38 4.232,-0.644 z m -6.045,0.714 c -0.61,0 -1.214,-0.028 -1.813,-0.07 0.6,0.041 1.203,0.07 1.813,0.07 z m -1.813,-0.07 c -1.217,-0.103 -3.069,-0.379 -4.232,-0.644 1.164,0.264 3.015,0.541 4.232,0.644 z"
         id="path8721"
         style="fill:none;fill-opacity:1;stroke:#fdffff;stroke-width:2.1125;stroke-miterlimit:4;stroke-dasharray:none;stroke-opacity:0.985486"
         sodipodi:nodetypes="sscccscccscsccscsccsccscscsccsscccccccccccc" />
    </g>
  </g>
</svg>
