<?xml version="1.0" encoding="UTF-8" standalone="no"?>
<!-- Created with Inkscape (http://www.inkscape.org/) -->

<svg
   width="48"
   height="48"
   viewBox="0 0 48 48"
   version="1.1"
   id="svg5"
   inkscape:version="1.2 (dc2aedaf03, 2022-05-15)"
   sodipodi:docname="icon-li.svg"
   xmlns:inkscape="http://www.inkscape.org/namespaces/inkscape"
   xmlns:sodipodi="http://sodipodi.sourceforge.net/DTD/sodipodi-0.dtd"
   xmlns="http://www.w3.org/2000/svg"
   xmlns:svg="http://www.w3.org/2000/svg">
  <sodipodi:namedview
     id="namedview7"
     pagecolor="#000000"
     bordercolor="#666666"
     borderopacity="1.0"
     inkscape:pageshadow="2"
     inkscape:pageopacity="0"
     inkscape:pagecheckerboard="true"
     inkscape:document-units="px"
     showgrid="false"
     showguides="true"
     inkscape:guide-bbox="true"
     inkscape:zoom="16"
     inkscape:cx="22.6875"
     inkscape:cy="22.1875"
     inkscape:window-width="1920"
     inkscape:window-height="1017"
     inkscape:window-x="-8"
     inkscape:window-y="380"
     inkscape:window-maximized="1"
     inkscape:current-layer="layer1"
     inkscape:showpageshadow="0"
     inkscape:deskcolor="#000000">
    <sodipodi:guide
       position="24.044159,50.13129"
       orientation="1,0"
       id="guide1589"
       inkscape:locked="false" />
    <sodipodi:guide
       position="-11.1875,24.0625"
       orientation="0,-1"
       id="guide1921"
       inkscape:locked="false" />
  </sodipodi:namedview>
  <defs
     id="defs2" />
  <g
     inkscape:label="Layer 1"
     inkscape:groupmode="layer"
     id="layer1">
    <g
       id="g1067"
       transform="matrix(0.69627276,0,0,0.71149057,8.0231364,7.5486919)"
       style="stroke:#ffffff;stroke-opacity:1">
      <g
         id="g1010"
         style="stroke:#ffffff;stroke-opacity:1">
        <g
           id="g1008"
           style="stroke:#ffffff;stroke-opacity:1">
          <path
             d="M 5.392,0.492 C 2.268,0.492 0,2.647 0,5.614 0,8.58 2.223,10.733 5.284,10.733 6.872,10.733 8.24,10.218 9.241,9.244 10.201,8.309 10.73,7.02 10.729,5.591 10.659,2.589 8.464,0.492 5.392,0.492 Z M 7.847,7.811 C 7.227,8.414 6.34,8.733 5.284,8.733 3.351,8.733 2,7.451 2,5.614 2,3.747 3.363,2.492 5.392,2.492 7.375,2.492 8.685,3.727 8.73,5.615 8.729,6.477 8.416,7.256 7.847,7.811 Z"
             id="path1002"
             style="stroke:#ffffff;stroke-opacity:1" />
          <path
             d="M 0.959,45.467 H 9.947 V 12.422 H 0.959 Z m 2,-31.045 H 7.947 V 43.466 H 2.959 Z"
             id="path1004"
             style="stroke:#ffffff;stroke-opacity:1" />
          <path
             d="m 33.648,12.422 c -4.168,0 -6.72,1.439 -8.198,2.792 L 25.169,12.422 H 15 v 33.044 h 9.959 V 28.099 c 0,-0.748 0.303,-2.301 0.493,-2.711 1.203,-2.591 2.826,-2.591 5.284,-2.591 2.831,0 5.223,2.655 5.223,5.797 v 16.874 h 10 v -18.67 c 0,-9.878 -6.382,-14.376 -12.311,-14.376 z m 10.311,31.045 h -6 V 28.593 c 0,-4.227 -3.308,-7.797 -7.223,-7.797 -2.512,0 -5.358,0 -7.099,3.75 -0.359,0.775 -0.679,2.632 -0.679,3.553 V 43.467 H 17 V 14.422 h 6.36 l 0.408,4.044 h 1.639 L 25.7,17.993 c 0.667,-1.074 2.776,-3.572 7.948,-3.572 4.966,0 10.311,3.872 10.311,12.374 z"
             id="path1006"
             style="stroke:#ffffff;stroke-opacity:1" />
        </g>
      </g>
      <g
         id="g1012"
         style="stroke:#ffffff;stroke-opacity:1" />
      <g
         id="g1014"
         style="stroke:#ffffff;stroke-opacity:1" />
      <g
         id="g1016"
         style="stroke:#ffffff;stroke-opacity:1" />
      <g
         id="g1018"
         style="stroke:#ffffff;stroke-opacity:1" />
      <g
         id="g1020"
         style="stroke:#ffffff;stroke-opacity:1" />
      <g
         id="g1022"
         style="stroke:#ffffff;stroke-opacity:1" />
      <g
         id="g1024"
         style="stroke:#ffffff;stroke-opacity:1" />
      <g
         id="g1026"
         style="stroke:#ffffff;stroke-opacity:1" />
      <g
         id="g1028"
         style="stroke:#ffffff;stroke-opacity:1" />
      <g
         id="g1030"
         style="stroke:#ffffff;stroke-opacity:1" />
      <g
         id="g1032"
         style="stroke:#ffffff;stroke-opacity:1" />
      <g
         id="g1034"
         style="stroke:#ffffff;stroke-opacity:1" />
      <g
         id="g1036"
         style="stroke:#ffffff;stroke-opacity:1" />
      <g
         id="g1038"
         style="stroke:#ffffff;stroke-opacity:1" />
      <g
         id="g1040"
         style="stroke:#ffffff;stroke-opacity:1" />
    </g>
    <g
       id="g1125"
       transform="translate(-151.80569,-221.98578)">
      <g
         id="g1071" />
      <g
         id="g1073" />
      <g
         id="g1075" />
      <g
         id="g1077" />
      <g
         id="g1079" />
      <g
         id="g1081" />
      <g
         id="g1083" />
      <g
         id="g1085" />
      <g
         id="g1087" />
      <g
         id="g1089" />
      <g
         id="g1091" />
      <g
         id="g1093" />
      <g
         id="g1095" />
      <g
         id="g1097" />
      <g
         id="g1099" />
      <g
         id="g1101" />
    </g>
  </g>
</svg>
